Patient4_TMGait_0pt2_02_left_08_GRF.mot
version=1
nRows=45
nColumns=19
inDegrees=no
endheader
time	F1x	F1y	F1z	M1x	M1y	M1z	F2x	F2y	F2z	M2x	M2y	M2z	EC1x	EC1y	EC1z	EC2x	EC2y	EC2z
17.96	0.35788	-2.852	-1.9682	1.0588	2.2154	-3.2396	-25.6511	776.7351	-32.3443	283.372	50.1642	862.1361	-0.0592	0.0182	-0.0073	-0.0462	0.0165	0.9585
17.9834	0.31513	-2.0911	-1.3621	0.73925	1.5702	-2.3858	-25.4832	784.2613	-32.5792	286.3594	50.0084	869.4717	-0.0592	0.0182	-0.0073	-0.0462	0.0165	0.9585
18.0069	0.27292	-1.4102	-0.84095	0.4587	1.011	-1.621	-25.0746	793.4494	-32.8319	289.9956	49.6852	878.1657	-0.0592	0.0182	-0.0073	-0.0462	0.0165	0.9585
18.0303	0.23029	-0.85661	-0.43635	0.23432	0.57278	-0.99749	-24.409	803.7551	-33.0781	294.059	49.1628	887.5964	-0.0592	0.0182	-0.0073	-0.0462	0.0165	0.9585
18.0537	0.18579	-0.44094	-0.15194	0.068992	0.26212	-0.52459	-23.5281	814.2975	-33.2852	298.2026	48.4319	896.8318	-0.0592	0.0182	-0.0073	-0.0462	0.0165	0.9585
18.0771	0.13991	-0.15398	0.026052	-0.041686	0.064848	-0.19241	-22.4789	823.8955	-33.4004	301.9729	47.4692	904.6484	-0.0592	0.0182	-0.0073	-0.0462	0.0165	0.9585
18.1006	0.095598	0.018325	0.11988	-0.1038	-0.044443	0.0086571	-21.2521	831.1991	-33.3728	304.8605	46.2361	909.6475	-0.0592	0.0182	-0.0073	-0.0462	0.0165	0.9585
18.124	0.055452	0.082532	0.15284	-0.12135	-0.09132	0.077316	-19.7751	834.9637	-33.1744	306.4005	44.6996	910.5361	-0.0592	0.0182	-0.0073	-0.0462	0.0165	0.9585
18.1474	0.020387	0.026908	0.14478	-0.092669	-0.096937	-0.0021982	-17.9559	834.3457	-32.8036	306.2797	42.851	906.4498	-0.0592	0.0182	-0.0073	-0.0462	0.0165	0.9585
18.1709	-0.0092884	-0.17961	0.10994	-0.0088935	-0.073376	-0.25949	-15.73	829.0869	-32.284	304.4032	40.7212	897.1607	-0.0592	0.0182	-0.0073	-0.0462	0.0165	0.9585
18.1943	-0.031391	-0.58243	0.054526	0.14535	-0.021988	-0.74827	-13.0839	819.574	-31.6627	300.9179	38.3828	883.1444	-0.0592	0.0182	-0.0073	-0.0462	0.0165	0.9585
18.2177	-0.036944	-1.236	-0.020861	0.38817	0.061398	-1.5288	-10.0607	806.7794	-31.0029	296.19	35.9408	865.5097	-0.0592	0.0182	-0.0073	-0.0462	0.0165	0.9585
18.2411	-0.010938	-2.1839	-0.11705	0.73434	0.18335	-2.6477	-6.7443	792.0699	-30.3751	290.733	33.5156	845.781	-0.0592	0.0182	-0.0073	-0.0462	0.0165	0.9585
18.2646	0.06603	-3.429	-0.23572	1.1869	0.35304	-4.1077	-3.2558	776.9634	-29.8556	285.1171	31.2418	825.6372	-0.0592	0.0182	-0.0073	-0.0462	0.0165	0.9585
18.288	0.21655	-4.9028	-0.37588	1.7236	0.57701	-5.8265	0.25266	762.9426	-29.5268	279.9004	29.2665	806.702	-0.0592	0.0182	-0.0073	-0.0462	0.0165	0.9585
18.3114	0.46243	-6.4223	-0.5314	2.281	0.85216	-7.5815	3.639	751.2888	-29.4586	275.5685	27.7118	790.3612	-0.0592	0.0182	-0.0073	-0.0462	0.0165	0.9585
18.3349	0.82308	-7.6369	-0.68435	2.735	1.16	-8.948	6.805	742.8813	-29.6914	272.4576	26.6465	777.5481	-0.0592	0.0182	-0.0073	-0.0462	0.0165	0.9585
18.3583	1.306	-7.9739	-0.80356	2.8809	1.4621	-9.2394	9.7007	737.9709	-30.2371	270.6667	26.0875	768.5212	-0.0592	0.0182	-0.0073	-0.0462	0.0165	0.9585
18.3817	1.8951	-6.596	-0.83844	2.4187	1.6884	-7.4632	12.3021	736.05	-31.0789	270.0099	26.0098	762.7582	-0.0592	0.0182	-0.0073	-0.0462	0.0165	0.9585
18.4051	2.5331	-2.3902	-0.7109	0.94631	1.7228	-2.3101	14.5788	735.9003	-32.1578	270.0352	26.345	759.0277	-0.0592	0.0182	-0.0073	-0.0462	0.0165	0.9585
18.4286	3.1007	5.9734	-0.3144	-2.0199	1.394	7.7707	16.4776	735.7918	-33.3615	270.099	26.9788	755.606	-0.0592	0.0182	-0.0073	-0.0462	0.0165	0.9585
18.452	3.3946	19.8711	0.47814	-6.9872	0.47687	24.3707	17.9479	733.7478	-34.5278	269.4657	27.7476	750.5267	-0.0592	0.0182	-0.0073	-0.0462	0.0165	0.9585
18.4754	3.1095	40.4068	1.7998	-14.3754	-1.2946	48.737	18.9757	727.7564	-35.4774	267.3859	28.458	741.7807	-0.0592	0.0182	-0.0073	-0.0462	0.0165	0.9585
18.4989	1.9364	68.0017	3.7709	-24.3628	-4.1734	81.2898	19.5543	715.9206	-36.0439	263.1527	28.9299	727.4853	-0.0592	0.0182	-0.0073	-0.0462	0.0165	0.9585
18.5223	-0.22254	101.8975	6.4523	-36.6949	-8.2667	121.0496	19.657	696.7536	-36.0995	256.2116	29.0362	706.1874	-0.0592	0.0182	-0.0073	-0.0462	0.0165	0.9585
18.5457	-3.0905	139.7418	9.7086	-50.5284	-13.2996	165.1595	19.2772	669.674	-35.5808	246.3444	28.713	677.3409	-0.0592	0.0182	-0.0073	-0.0462	0.0165	0.9585
18.5691	-6.0779	178.2406	13.2524	-64.6636	-18.6911	209.6801	18.5129	635.5324	-34.5137	233.8624	27.9534	641.7926	-0.0592	0.0182	-0.0073	-0.0462	0.0165	0.9585
18.5926	-8.6984	215.1547	16.7113	-78.2784	-23.8062	251.9714	17.5872	596.6566	-33.0311	219.6203	26.8193	601.8104	-0.0592	0.0182	-0.0073	-0.0462	0.0165	0.9585
18.616	-10.7492	249.8155	19.8215	-91.1148	-28.2576	291.2952	16.7304	556.0481	-31.3129	204.7257	25.4193	560.3049	-0.0592	0.0182	-0.0073	-0.0462	0.0165	0.9585
18.6394	-12.2318	282.2557	22.4716	-103.1616	-31.9251	327.7602	16.0571	516.3684	-29.5077	190.1684	23.8705	519.8509	-0.0592	0.0182	-0.0073	-0.0462	0.0165	0.9585
18.6629	-13.2182	312.6975	24.6677	-114.4709	-34.8566	361.6918	15.5392	479.3639	-27.7395	176.6027	22.3089	482.1318	-0.0592	0.0182	-0.0073	-0.0462	0.0165	0.9585
18.6863	-13.7888	341.314	26.4966	-125.0748	-37.1925	393.3426	15.0444	445.8021	-26.0988	164.3199	20.8715	447.889	-0.0592	0.0182	-0.0073	-0.0462	0.0165	0.9585
18.7097	-14.0133	368.152	28.0817	-134.9638	-39.1053	422.7944	14.4247	415.7421	-24.6101	153.3483	19.6392	417.1803	-0.0592	0.0182	-0.0073	-0.0462	0.0165	0.9585
18.7331	-13.9544	393.2157	29.5205	-144.1249	-40.7319	450.0669	13.59	388.8532	-23.2398	143.5691	18.6179	389.6784	-0.0592	0.0182	-0.0073	-0.0462	0.0165	0.9585
18.7566	-13.6717	416.5356	30.8414	-152.5665	-42.1302	475.2148	12.5285	364.6519	-21.9469	134.8028	17.7738	364.9034	-0.0592	0.0182	-0.0073	-0.0462	0.0165	0.9585
18.78	-13.2172	438.0751	32.0096	-160.2798	-43.2823	498.2296	11.3005	342.6715	-20.7192	126.8702	17.069	342.3869	-0.0592	0.0182	-0.0073	-0.0462	0.0165	0.9585
18.8034	-12.6281	457.619	32.9641	-167.1945	-44.1341	518.9155	10.0185	322.574	-19.5763	119.6355	16.4732	321.7814	-0.0592	0.0182	-0.0073	-0.0462	0.0165	0.9585
18.8269	-11.9367	474.8235	33.6349	-173.1977	-44.6186	536.9471	8.8207	304.174	-18.5504	113.017	15.9588	302.8963	-0.0592	0.0182	-0.0073	-0.0462	0.0165	0.9585
18.8503	-11.1752	489.3627	33.9347	-178.1862	-44.6461	552.0213	7.8402	287.3574	-17.6612	106.9601	15.4899	285.6163	-0.0592	0.0182	-0.0073	-0.0462	0.0165	0.9585
18.8737	-10.3487	501.0689	33.7896	-182.112	-44.1278	563.9812	7.1859	271.9369	-16.8981	101.387	15.0107	269.757	-0.0592	0.0182	-0.0073	-0.0462	0.0165	0.9585
18.8971	-9.4152	510.0763	33.2025	-185.0352	-43.0387	572.9574	6.9382	257.5363	-16.2257	96.1539	14.4542	254.9527	-0.0592	0.0182	-0.0073	-0.0462	0.0165	0.9585
18.9206	-8.3056	516.9518	32.2824	-187.1741	-41.4635	579.5251	7.129	243.5905	-15.5993	91.0494	13.7635	240.6554	-0.0592	0.0182	-0.0073	-0.0462	0.0165	0.9585
18.944	-6.9737	522.7347	31.2201	-188.9233	-39.5947	584.7747	7.7175	229.4904	-14.9784	85.8483	12.9137	226.2775	-0.0592	0.0182	-0.0073	-0.0462	0.0165	0.9585
18.9674	-5.4376	528.8323	30.2378	-190.8171	-37.6907	590.216	8.5814	214.734	-14.3288	80.3675	11.9178	211.3417	-0.0592	0.0182	-0.0073	-0.0462	0.0165	0.9585
18.9909	-3.7882	536.7832	29.5394	-193.4391	-36.0203	597.5248	9.5245	198.9934	-13.6138	74.4899	10.8142	195.543	-0.0592	0.0182	-0.0073	-0.0462	0.0165	0.9585
